mastitorrents.com
 
http://mastitorrents.com/forums/index.php

General
Ripper : Rahul
Complete name : GolMaal ( 1979 }.avi
Format : AVI
Format/Info : Audio Video Interleave
File size : 1.36 GiB
Duration : 2h 23mn
Overall bit rate : 1 353 Kbps
Writing application : VirtualDubMod 1.5.10.3 |

Video
ID : 0
Format : MPEG-4 Visual
Format profile : Advanced Simple@L5
Format settings, BVOP : Yes
Format settings, QPel : No
Format settings, GMC : No warppoints
Format settings, Matrix : Default (MPEG)
Muxing mode : Packed bitstream
Codec ID : XVID
Codec ID/Hint : XviD
Duration : 2h 23mn
Bit rate : 1 120 Kbps
Width : 608 pixels
Height : 432 pixels
Display aspect ratio : 1.407
Frame rate : 23.976 fps
Color space : YUV
Chroma subsampling : 4:2:0
Bit depth : 8 bits
Scan type : Progressive
Bits/(Pixel*Frame) : 0.178
Stream size : 1.13 GiB (83%)


Audio
ID : 1
Format : AC-3
Format/Info : Audio Coding 3
Mode extension : CM (complete main)
Codec ID : 2000
Duration : 2h 23mn
Bit rate mode : Constant
Bit rate : 224 Kbps
Channel(s) : 2 channels
Channel positions : Front: L R
Sampling rate : 48.0 KHz
Bit depth : 16 bits
Stream size : 231 MiB (17%)
Alignment : Split accross interleaves
Interleave, duration : 42 ms (1.00 video frame)
Interleave, preload duration : 500 ms